<mxfile host="app.diagrams.net"><diagram name="Use Case Diagram" id="F9E0h4Y9G1n7Fz0N5h8d"><mxGraphModel dx="1068" dy="607" grid="1" gridSize="10" guides="1" tooltips="1" connect="1" arrows="1" fold="1" page="1" pageScale="1" pageWidth="827" pageHeight="1169" math="0" shadow="0"><root><mxCell id="0" parent=""><mxCell id="1" style="shape=ellipse;whiteSpace=wrap;html=1;" vertex="1" parent=""><mxGeometry x="240" y="40" width="120" height="60" as="geometry"/></mxCell><mxCell id="2" style="shape=ellipse;whiteSpace=wrap;html=1;" vertex="1" parent=""><mxGeometry x="240" y="140" width="120" height="60" as="geometry"/></mxCell><mxCell id="3" style="shape=ellipse;whiteSpace=wrap;html=1;" vertex="1" parent=""><mxGeometry x="240" y="240" width="120" height="60" as="geometry"/></mxCell><mxCell id="4" style="ellipse;whiteSpace=wrap;html=1;" vertex="1" parent=""><mxGeometry x="240" y="340" width="120" height="60" as="geometry"/></mxCell><mxCell id="5" style="edgeStyle=orthogonalEdgeStyle;rounded=0;orthogonalLoop=1;exitX=0.5;exitY=0;entryX=0.5;entryY=1;exitPerimeter=1;entryPerimeter=1;" edge="1" parent=""><mxGeometry relative="1" as="geometry"/></mxCell><mxCell id="6" style="edgeStyle=orthogonalEdgeStyle;rounded=0;orthogonalLoop=1;exitX=0.5;exitY=0;entryX=0.5;entryY=1;exitPerimeter=1;entryPerimeter=1;" edge="1" parent=""><mxGeometry relative="1" as="geometry"/></mxCell><mxCell id="7" style="edgeStyle=orthogonalEdgeStyle;rounded=0;orthogonalLoop=1;exitX=0.5;exitY=0;entryX=0.5;entryY=1;exitPerimeter=1;entryPerimeter=1;" edge="1" parent=""><mxGeometry relative="1" as="geometry"/></mxCell><mxCell id="8" style="edgeStyle=orthogonalEdgeStyle;rounded=0;orthogonalLoop=1;exitX=0.5;exitY=0;entryX=0.5;entryY=1;exitPerimeter=1;entryPerimeter=1;" edge="1" parent=""><mxGeometry relative="1" as="geometry"/></mxCell></root></mxGraphModel></diagram></mxfile>
